<svg width="20" height="21" viewBox="0 0 20 21" fill="none" xmlns="http://www.w3.org/2000/svg">
<path d="M11.3566 5.26582L14.8851 8.96545M5.44658 11.4623L13.7406 2.76622C14.7149 1.74459 16.2948 1.74459 17.2692 2.76622C18.2436 3.78785 18.2436 5.44423 17.2692 6.46586L8.70853 15.4414C7.7584 16.4377 7.28334 16.9358 6.74215 17.3319C6.26185 17.6836 5.74375 17.9748 5.1987 18.1998C4.58453 18.4532 3.92593 18.5926 2.60871 18.8713L2 19L2.0592 18.5655C2.26867 17.0282 2.37341 16.2594 2.61166 15.5417C2.82307 14.9049 3.11187 14.2994 3.47093 13.7399C3.87557 13.1095 4.39926 12.5604 5.44658 11.4623Z" stroke="#2A7DDC" stroke-width="3" stroke-linecap="round" stroke-linejoin="round"/>
</svg>
